#!OML:ASF H:\Not Pregnant\Project 1\Capture day 1\Session 1\non-pregnant.ASF
:FULLY-SPECIFIED
:DEGREES
860
root 4.91375 16.436 -9.43962 -170.232 187.479 -179.13
lowerback 1.21215 2.3029 -0.982963
upperback -5.88705 2.9425 -1.6885
thorax -6.76137 1.45698 -1.4182
lowerneck 16.0601 -9.97609 -31.1403
upperneck 2.06906 -20.5507 37.9027
head 5.90979 -11.9566 18.548
rclavicle 2.45375e-015 -3.97569e-015
rhumerus -32.7606 -13.8737 -82.0034
rradius 27.8742
rwrist 26.1246
rhand -9.37167 -3.58088
rfingers 7.12502
rthumb 16.5886 -32.8919
lclavicle 2.45375e-015 -3.97569e-015
lhumerus -41.6127 -3.96988 84.1946
lradius 33.0106
lwrist 32.1411
lhand -15.0703 -10.5671
lfingers 7.12502
lthumb 11.0969 19.1195
rfemur -50.3404 -2.89178 21.8119
rtibia 86.2414
rfoot -12.3812 4.34151
rtoes -23.8438
lfemur -23.9164 -4.87264 -24.4933
ltibia 30.3443
lfoot -14.4871 -11.6515
ltoes -7.78673
861
root 4.90612 16.4457 -9.34318 -170.307 187.329 -179.063
lowerback 1.44595 2.20752 -1.19865
upperback -5.84025 2.80059 -1.67432
thorax -6.86032 1.39817 -1.28283
lowerneck 15.9756 -9.98051 -31.142
upperneck 2.10891 -20.5369 37.851
head 5.92205 -11.9389 18.5149
rclavicle 7.39852e-015 -1.23246e-014
rhumerus -32.6422 -13.4789 -82.1421
rradius 28.3309
rwrist 25.3912
rhand -9.66231 -3.55654
rfingers 7.12502
rthumb 16.3088 -32.8907
lclavicle 7.39852e-015 -1.23246e-014
lhumerus -41.1286 -4.15788 84.3161
lradius 33.1972
lwrist 32.2145
lhand -14.9124 -10.4958
lfingers 7.12502
lthumb 11.2493 19.1826
rfemur -52.0274 -2.8914 22.2335
rtibia 86.4959
rfoot -13.0684 3.60948
rtoes -23.8699
lfemur -23.2413 -4.83635 -24.642
ltibia 29.9258
lfoot -14.544 -11.8029
ltoes -7.53471
862
root 4.8979 16.455 -9.24661 -170.351 187.155 -179.021
lowerback 1.65327 2.11078 -1.38743
upperback -5.80603 2.65797 -1.65429
thorax -6.95543 1.33799 -1.15453
lowerneck 15.894 -9.98803 -31.1367
upperneck 2.15322 -20.5279 37.7964
head 5.93564 -11.9235 18.4783
rclavicle -7.237e-015 -1.66979e-014
rhumerus -32.5463 -13.1217 -82.2563
rradius 28.7751
rwrist 24.7224
rhand -9.91486 -3.5247
rfingers 7.12502
rthumb 16.0656 -32.8787
lclavicle -7.237e-015 -1.66979e-014
lhumerus -40.6504 -4.34037 84.4331
lradius 33.386
lwrist 32.2926
lhand -14.7494 -10.419
lfingers 7.12502
lthumb 11.4064 19.2507
rfemur -53.6808 -2.85392 22.677
rtibia 86.6091
rfoot -13.6697 2.9104
rtoes -23.8449
lfemur -22.6083 -4.81849 -24.7527
ltibia 29.5315
lfoot -14.6051 -11.9497
ltoes -7.32659
863
root 4.88934 16.4638 -9.14964 -170.372 186.953 -179.01
lowerback 1.83787 2.01038 -1.54167
upperback -5.78087 2.51242 -1.62652
thorax -7.04494 1.27497 -1.03557
lowerneck 15.7995 -9.99978 -31.131
upperneck 2.21667 -20.5267 37.7408
head 5.96022 -11.9107 18.4391
rclavicle -1.21197e-014 6.36111e-015
rhumerus -32.4709 -12.8047 -82.3446
rradius 29.2034
rwrist 24.1208
rhand -10.1058 -3.4189
rfingers 7.12502
rthumb 15.8817 -32.7876
lclavicle -1.21197e-014 6.36111e-015
lhumerus -40.1796 -4.51817 84.5496
lradius 33.5753
lwrist 32.3986
lhand -14.7291 -10.4076
lfingers 7.12502
lthumb 11.4261 19.2611
rfemur -55.2829 -2.79412 23.1434
rtibia 86.5839
rfoot -14.2032 2.24497
rtoes -23.8104
lfemur -22.0127 -4.83319 -24.8212
ltibia 29.1699
lfoot -14.6675 -12.0858
ltoes -7.11765
864
root 4.88034 16.4719 -9.05241 -170.365 186.724 -179.029
lowerback 1.99951 1.90763 -1.66319
upperback -5.76616 2.36584 -1.59158
thorax -7.13036 1.21011 -0.925828
lowerneck 15.7031 -10.0149 -31.1196
upperneck 2.28589 -20.5306 37.6868
head 5.98853 -11.9001 18.3988
rclavicle -2.3792e-015 -2.06736e-014
rhumerus -32.4146 -12.545 -82.401
rradius 29.6077
rwrist 23.6203
rhand -10.2331 -3.32583
rfingers 7.12502
rthumb 15.7592 -32.7043
lclavicle -2.3792e-015 -2.06736e-014
lhumerus -39.714 -4.70496 84.6757
lradius 33.7569
lwrist 32.5469
lhand -14.9243 -10.5123
lfingers 7.12502
lthumb 11.2378 19.1667
rfemur -56.8337 -2.71049 23.6286
rtibia 86.4243
rfoot -14.6784 1.62182
rtoes -23.8001
lfemur -21.4621 -4.87794 -24.8471
ltibia 28.8429
lfoot -14.7319 -12.2153
ltoes -6.8981
865
root 4.871 16.479 -8.95498 -170.343 186.467 -179.064
lowerback 2.15497 1.80186 -1.76269
upperback -5.75937 2.21632 -1.55387
thorax -7.21917 1.14284 -0.824453
lowerneck 15.6191 -10.0316 -31.1073
upperneck 2.34515 -20.5393 37.6448
head 6.01576 -11.8939 18.3648
rclavicle -1.34739e-014 2.38542e-015
rhumerus -32.3781 -12.3441 -82.4283
rradius 29.9861
rwrist 23.216
rhand -10.3222 -3.25345
rfingers 7.12502
rthumb 15.6734 -32.6386
lclavicle -1.34739e-014 2.38542e-015
lhumerus -39.2593 -4.88945 84.8058
lradius 33.9366
lwrist 32.7153
lhand -15.2728 -10.6948
lfingers 7.12502
lthumb 10.9016 19.0022
rfemur -58.3209 -2.60925 24.1131
rtibia 86.1358
rfoot -15.0948 1.04808
rtoes -23.8111
lfemur -20.9432 -4.95298 -24.847
ltibia 28.5487
lfoot -14.818 -12.3286
ltoes -6.76263
866
root 4.86128 16.4851 -8.85719 -170.312 186.188 -179.1
lowerback 2.30412 1.6955 -1.8569
upperback -5.75785 2.06597 -1.51792
thorax -7.30908 1.07502 -0.72696
lowerneck 15.5444 -10.0506 -31.0892
upperneck 2.39444 -20.552 37.6136
head 6.04122 -11.891 18.3352
rclavicle -2.32392e-014 -3.97569e-016
rhumerus -32.3573 -12.2142 -82.4237
rradius 30.3304
rwrist 22.9031
rhand -10.4128 -3.15801
rfingers 7.12502
rthumb 15.5861 -32.55
lclavicle -2.32392e-014 -3.97569e-016
lhumerus -38.8121 -5.08083 84.9441
lradius 34.1152
lwrist 32.9112
lhand -15.6314 -10.913
lfingers 7.12502
lthumb 10.5557 18.802
rfemur -59.7397 -2.49493 24.5726
rtibia 85.7232
rfoot -15.4682 0.549901
rtoes -23.8887
lfemur -20.4484 -5.05374 -24.8389
ltibia 28.28
lfoot -14.9222 -12.4272
ltoes -6.71699
867
root 4.85121 16.4902 -8.75898 -170.277 185.893 -179.125
lowerback 2.45043 1.58947 -1.95893
upperback -5.76094 1.91503 -1.48593
thorax -7.40189 1.00742 -0.628497
lowerneck 15.4836 -10.0713 -31.064
upperneck 2.43186 -20.5675 37.5903
head 6.06227 -11.8911 18.3086
rclavicle 2.06301e-014 -7.95139e-015
rhumerus -32.3517 -12.1589 -82.3855
rradius 30.6328
rwrist 22.675
rhand -10.5004 -3.04167
rfingers 7.12502
rthumb 15.5017 -32.4402
lclavicle 2.06301e-014 -7.95139e-015
lhumerus -38.3743 -5.27674 85.0911
lradius 34.2955
lwrist 33.1264
lhand -16.0715 -11.1707
lfingers 7.12502
lthumb 10.1312 18.5654
rfemur -61.0824 -2.37113 24.9881
rtibia 85.1906
rfoot -15.808 0.146366
rtoes -24.0423
lfemur -19.9648 -5.17778 -24.8364
ltibia 28.0234
lfoot -15.0329 -12.5175
ltoes -6.73479
868
root 4.8407 16.4946 -8.66034 -170.249 185.591 -179.131
lowerback 2.60191 1.48653 -2.07975
upperback -5.7651 1.76616 -1.45947
thorax -7.4988 0.941949 -0.524978
lowerneck 15.4507 -10.0906 -31.0401
upperneck 2.4381 -20.5834 37.5854
head 6.07281 -11.8953 18.2935
rclavicle -4.0316e-015 -1.23246e-014
rhumerus -32.3627 -12.164 -82.3214
rradius 30.8974
rwrist 22.4953
rhand -10.6099 -2.9046
rfingers 7.12502
rthumb 15.3962 -32.3113
lclavicle -4.0316e-015 -1.23246e-014
lhumerus -37.9463 -5.46216 85.2394
lradius 34.4749
lwrist 33.3247
lhand -16.1337 -11.282
lfingers 7.12502
lthumb 10.0712 18.457
rfemur -62.3383 -2.23722 25.3441
rtibia 84.5383
rfoot -16.1154 -0.144399
rtoes -24.2137
lfemur -19.4727 -5.31881 -24.85
ltibia 27.7633
lfoot -15.1418 -12.5993
ltoes -6.80309
869
root 4.82976 16.4989 -8.5611 -170.227 185.289 -179.115
lowerback 2.75042 1.38883 -2.22211
upperback -5.76463 1.62224 -1.43984
thorax -7.58895 0.880107 -0.416118
lowerneck 15.4249 -10.1131 -31.0135
upperneck 2.42183 -20.602 37.5964
head 6.07906 -11.9022 18.2855
rclavicle -1.04983e-015 7.95139e-015
rhumerus -32.3763 -12.2447 -82.2283
rradius 31.1101
rwrist 22.3773
rhand -10.7315 -2.76042
rfingers 7.12502
rthumb 15.2792 -32.1761
lclavicle -1.04983e-015 7.95139e-015
lhumerus -37.5186 -5.64257 85.3896
lradius 34.6646
lwrist 33.4954
lhand -16.1878 -11.3614
lfingers 7.12502
lthumb 10.019 18.3801
rfemur -63.5035 -2.09946 25.6365
rtibia 83.7718
rfoot -16.3819 -0.3295
rtoes -24.37
lfemur -18.9631 -5.46739 -24.8837
ltibia 27.4828
lfoot -15.23 -12.6835
ltoes -6.862
870
root 4.8184 16.5034 -8.4612 -170.214 184.994 -179.084
lowerback 2.90028 1.29773 -2.38181
upperback -5.76189 1.48525 -1.42419
thorax -7.67734 0.822757 -0.301707
lowerneck 15.4181 -10.1339 -30.9873
upperneck 2.38419 -20.6196 37.6205
head 6.07762 -11.9114 18.2857
rclavicle 2.71062e-014 -1.66979e-014
rhumerus -32.3997 -12.392 -82.1057
rradius 31.2705
rwrist 22.3147
rhand -10.8606 -2.6214
rfingers 7.12502
rthumb 15.1547 -32.0465
lclavicle 2.71062e-014 -1.66979e-014
lhumerus -37.0989 -5.82339 85.5468
lradius 34.8586
lwrist 33.6491
lhand -16.2434 -11.4116
lfingers 7.12502
lthumb 9.96534 18.3325
rfemur -64.5692 -1.9589 25.8743
rtibia 82.8998
rfoot -16.5944 -0.437201
rtoes -24.5151
lfemur -18.4261 -5.61256 -24.9323
ltibia 27.1714
lfoot -15.289 -12.7781
ltoes -6.88046
871
root 4.80674 16.5084 -8.36049 -170.214 184.704 -179.045
lowerback 3.05072 1.21307 -2.54834
upperback -5.7516 1.35591 -1.41067
thorax -7.7575 0.769626 -0.185674
lowerneck 15.42 -10.1563 -30.9604
upperneck 2.32545 -20.6382 37.6589
head 6.07136 -11.9227 18.293
rclavicle 8.66266e-015 -2.3059e-014
rhumerus -32.4262 -12.6026 -81.9579
rradius 31.3811
rwrist 22.2982
rhand -10.9928 -2.51063
rfingers 7.12502
rthumb 15.0275 -31.9453
lclavicle 8.66266e-015 -2.3059e-014
lhumerus -36.6863 -6.01243 85.7159
lradius 35.0619
lwrist 33.802
lhand -16.3089 -11.4534
lfingers 7.12502
lthumb 9.90214 18.2937
rfemur -65.5243 -1.82456 26.0698
rtibia 81.9336
rfoot -16.7396 -0.502975
rtoes -24.6154
lfemur -17.8533 -5.74787 -24.9878
ltibia 26.8232
lfoot -15.3198 -12.8873
ltoes -6.8603
872
root 4.79475 16.5137 -8.25911 -170.222 184.42 -179.013
lowerback 3.20371 1.13513 -2.71085
upperback -5.73842 1.23557 -1.39323
thorax -7.83554 0.720971 -0.0680839
lowerneck 15.4397 -10.1743 -30.9376
upperneck 2.24498 -20.6523 37.7121
head 6.05688 -11.9344 18.3112
rclavicle 1.22625e-014 -6.75868e-015
rhumerus -32.4645 -12.8692 -81.7824
rradius 31.4463
rwrist 22.3249
rhand -11.1202 -2.43133
rfingers 7.12502
rthumb 14.9047 -31.8751
lclavicle 1.22625e-014 -6.75868e-015
lhumerus -36.2885 -6.20345 85.8974
lradius 35.267
lwrist 33.9503
lhand -16.3779 -11.5003
lfingers 7.12502
lthumb 9.83555 18.25
rfemur -66.3706 -1.69449 26.2418
rtibia 80.8896
rfoot -16.8125 -0.55654
rtoes -24.6623
lfemur -17.2522 -5.86731 -25.0347
ltibia 26.4428
lfoot -15.3217 -13.0168
ltoes -6.77862
873
root 4.78257 16.519 -8.15693 -170.238 184.141 -178.994
lowerback 3.35682 1.06443 -2.85959
upperback -5.72332 1.12575 -1.3715
thorax -7.91092 0.676967 0.0458307
lowerneck 15.4742 -10.1901 -30.9198
upperneck 2.14894 -20.6658 37.7777
head 6.03786 -11.9483 18.3383
rclavicle -4.18846e-015 1.39149e-014
rhumerus -32.5136 -13.193 -81.5792
rradius 31.4627
rwrist 22.3909
rhand -11.2361 -2.38716
rfingers 7.12502
rthumb 14.793 -31.8392
lclavicle -4.18846e-015 1.39149e-014
lhumerus -35.9076 -6.40048 86.0908
lradius 35.4758
lwrist 34.0947
lhand -16.449 -11.5409
lfingers 7.12502
lthumb 9.76697 18.2126
rfemur -67.1097 -1.57019 26.4002
rtibia 79.784
rfoot -16.818 -0.632252
rtoes -24.7043
lfemur -16.6261 -5.96264 -25.0668
ltibia 26.0377
lfoot -15.314 -13.1647
ltoes -6.72753
